<svg xmlns="http://www.w3.org/2000/svg" version="1.1" xmlns:xlink="http://www.w3.org/1999/xlink" width="512" height="512"><svg width="512" height="512" viewBox="0 0 512 512" fill="none" xmlns="http://www.w3.org/2000/svg">
<path d="M207.784 234.672C207.784 247.866 204.608 259.3 198.255 268.975C192.001 278.65 183.303 286.126 172.162 291.403C161.119 296.681 148.316 299.319 133.755 299.319C121.832 299.319 111.962 298.049 104.144 295.508C96.423 292.869 89.3866 289.156 83.0343 284.367L83.6207 281.728C88.1162 284.856 92.2207 287.348 95.9344 289.204C99.648 291.061 103.264 292.429 106.782 293.309C110.398 294.091 114.063 294.482 117.777 294.482C124.813 294.482 131.312 292.234 137.273 287.739C143.235 283.145 148.023 276.353 151.639 267.362C155.353 258.371 157.21 247.133 157.21 233.646C157.21 217.423 155.011 203.742 150.613 192.601C146.313 181.46 140.498 173.055 133.169 167.387C125.839 161.621 117.728 158.738 108.834 158.738H99.7458V352.385C99.7458 353.656 100.234 354.633 101.212 355.317C102.189 355.904 103.704 356.441 105.756 356.93L116.457 358.689C116.946 358.787 117.337 358.933 117.63 359.129C117.923 359.226 118.07 359.471 118.07 359.862C118.07 360.155 117.923 360.399 117.63 360.595C117.434 360.79 117.092 360.888 116.604 360.888H31.141C30.6523 360.888 30.2614 360.79 29.9682 360.595C29.675 360.399 29.5284 360.106 29.5284 359.715C29.5284 359.226 30.1637 358.835 31.4341 358.542L42.1353 356.783C44.0899 356.392 45.5069 355.855 46.3865 355.171C47.3637 354.487 47.8524 353.656 47.8524 352.679V164.602C47.8524 163.331 47.3637 162.305 46.3865 161.523C45.5069 160.741 44.1876 160.155 42.4285 159.764L30.9944 157.858C30.0171 157.761 29.5284 157.419 29.5284 156.832C29.5284 156.441 29.6262 156.148 29.8216 155.953C30.1148 155.757 30.5057 155.66 30.9944 155.66H108.834C128.575 155.66 145.824 158.982 160.581 165.628C175.436 172.176 187.017 181.411 195.323 193.334C203.63 205.159 207.784 218.938 207.784 234.672ZM245.391 363.673C240.603 363.673 236.303 362.5 232.491 360.155C228.68 357.712 225.65 354.487 223.403 350.48C221.155 346.473 220.031 342.075 220.031 337.286C220.031 332.596 221.155 328.296 223.403 324.386C225.65 320.38 228.68 317.203 232.491 314.858C236.4 312.513 240.7 311.34 245.391 311.34C250.278 311.34 254.627 312.513 258.438 314.858C262.347 317.203 265.425 320.38 267.673 324.386C270.019 328.296 271.191 332.596 271.191 337.286C271.191 342.075 270.019 346.473 267.673 350.48C265.425 354.487 262.347 357.712 258.438 360.155C254.627 362.5 250.278 363.673 245.391 363.673ZM350.502 283.048L423.504 203.302C429.661 196.95 433.619 190.744 435.378 184.685C437.138 178.626 436.893 173.299 434.645 168.706C432.398 164.015 428.195 160.79 422.039 159.031L416.761 158.005C416.175 157.81 415.735 157.663 415.442 157.565C415.247 157.37 415.149 157.077 415.149 156.686C415.149 156.393 415.247 156.148 415.442 155.953C415.735 155.757 416.077 155.66 416.468 155.66H483.46C483.851 155.66 484.145 155.757 484.34 155.953C484.633 156.148 484.78 156.344 484.78 156.539C484.78 157.028 484.633 157.37 484.34 157.565C484.047 157.761 483.656 157.907 483.167 158.005C480.431 159.08 477.499 160.497 474.372 162.256C471.342 164.015 467.726 166.507 463.524 169.732C459.419 172.957 454.435 177.306 448.572 182.779C442.806 188.154 435.72 195.093 427.316 203.595L351.675 285.979L350.502 283.048ZM376.595 255.195L413.829 218.401L478.183 345.496C480.529 350.089 482.581 353.363 484.34 355.317C486.197 357.272 488.787 358.396 492.109 358.689C492.598 358.787 492.94 358.933 493.135 359.129C493.429 359.324 493.575 359.52 493.575 359.715C493.575 360.106 493.429 360.399 493.135 360.595C492.842 360.79 492.451 360.888 491.963 360.888H411.631C411.24 360.888 410.898 360.79 410.604 360.595C410.311 360.399 410.165 360.106 410.165 359.715C410.165 359.226 410.311 358.933 410.604 358.835C410.995 358.64 411.386 358.542 411.777 358.542L421.012 357.076C422.283 356.881 423.162 356.148 423.651 354.877C424.14 353.607 423.553 351.31 421.892 347.988L376.595 255.195ZM358.858 352.679C358.858 353.851 359.395 354.78 360.47 355.464C361.545 356.05 363.06 356.539 365.014 356.93L375.129 358.542C375.911 358.64 376.449 358.787 376.742 358.982C377.035 359.08 377.182 359.373 377.182 359.862C377.182 360.057 377.035 360.301 376.742 360.595C376.449 360.79 376.058 360.888 375.569 360.888H290.253C289.764 360.888 289.373 360.79 289.08 360.595C288.787 360.301 288.64 360.057 288.64 359.862C288.64 359.177 289.324 358.738 290.693 358.542L300.807 356.93C302.86 356.539 304.374 356.05 305.352 355.464C306.427 354.78 306.964 353.851 306.964 352.679V163.869C306.964 162.696 306.427 161.816 305.352 161.23C304.374 160.546 302.86 160.008 300.807 159.618L290.693 158.005C289.324 157.81 288.64 157.37 288.64 156.686C288.64 156.393 288.787 156.148 289.08 155.953C289.373 155.757 289.764 155.66 290.253 155.66H375.569C376.058 155.66 376.449 155.757 376.742 155.953C377.035 156.148 377.182 156.393 377.182 156.686C377.182 157.37 376.497 157.81 375.129 158.005L365.014 159.618C363.06 160.008 361.545 160.546 360.47 161.23C359.395 161.816 358.858 162.696 358.858 163.869V352.679Z" fill="#E19AE7"></path>
</svg><style>@media (prefers-color-scheme: light) { :root { filter: none; } }
@media (prefers-color-scheme: dark) { :root { filter: none; } }
</style></svg>