<svg width="24" height="24" viewBox="0 0 24 24" fill="none" xmlns="http://www.w3.org/2000/svg">
<path d="M12.0002 2.69995C6.8627 2.69995 2.7002 6.86245 2.7002 12C2.7002 17.1375 6.8627 21.3 12.0002 21.3C17.1377 21.3 21.3002 17.1375 21.3002 12C21.3002 6.86245 17.1377 2.69995 12.0002 2.69995ZM3.6377 12C3.6377 10.7887 3.89645 9.63745 4.36145 8.5987L8.35144 19.5262C5.56144 18.1687 3.6377 15.3075 3.6377 12ZM12.0002 20.3625C11.1789 20.3625 10.3877 20.2425 9.63769 20.0212L12.1464 12.7312L14.7152 19.7737C14.7339 19.8149 14.7527 19.8525 14.7752 19.89C13.9089 20.1937 12.9752 20.3625 12.0002 20.3625ZM13.1514 8.0812C13.6539 8.05495 14.1077 8.00245 14.1077 8.00245C14.5577 7.94995 14.5052 7.2862 14.0552 7.31245C14.0552 7.31245 12.7014 7.41745 11.8277 7.41745C11.0064 7.41745 9.62645 7.31245 9.62645 7.31245C9.17645 7.2862 9.12395 7.9762 9.57395 8.00245C9.57395 8.00245 10.0014 8.05495 10.4514 8.0812L11.7527 11.6512L9.9227 17.1375L6.87769 8.0812C7.38019 8.05495 7.83394 8.00245 7.83394 8.00245C8.28394 7.94995 8.23144 7.2862 7.78145 7.31245C7.78145 7.31245 6.4277 7.41745 5.55395 7.41745C5.39645 7.41745 5.2127 7.4137 5.01395 7.4062C6.5102 5.13745 9.07894 3.63745 12.0002 3.63745C14.1752 3.63745 16.1589 4.46995 17.6477 5.8312C17.6102 5.82745 17.5764 5.8237 17.5389 5.8237C16.7177 5.8237 16.1364 6.53995 16.1364 7.3087C16.1364 7.9987 16.5339 8.57995 16.9577 9.26995C17.2764 9.82495 17.6477 10.5412 17.6477 11.5762C17.6477 12.2925 17.3739 13.1212 17.0102 14.28L16.1777 17.0662L13.1514 8.0812ZM16.2039 19.2262L18.7577 11.8425C19.2339 10.65 19.3952 9.69745 19.3952 8.8462C19.3952 8.5387 19.3764 8.2537 19.3389 7.98745C19.9914 9.17995 20.3627 10.545 20.3627 12C20.3627 15.0862 18.6902 17.7787 16.2039 19.2262Z" fill="white"/>
</svg>
