<svg width="64" height="44" viewBox="0 0 64 44" fill="none" xmlns="http://www.w3.org/2000/svg">
<path d="M25.056 19.16C25.056 20.744 24.648 22.112 23.832 23.264C23.028 24.416 21.876 25.31 20.376 25.946C18.876 26.582 17.1 26.9 15.048 26.9C13.668 26.9 12.438 26.75 11.358 26.45C10.278 26.15 9.312 25.73 8.46 25.19L8.694 23.48C9.162 23.804 9.624 24.068 10.08 24.272C10.548 24.476 11.034 24.632 11.538 24.74C12.042 24.836 12.576 24.884 13.14 24.884C14.124 24.884 15.006 24.662 15.786 24.218C16.578 23.774 17.202 23.114 17.658 22.238C18.126 21.362 18.36 20.282 18.36 18.998C18.36 17.498 18.09 16.208 17.55 15.128C17.022 14.036 16.284 13.202 15.336 12.626C14.388 12.038 13.296 11.744 12.06 11.744H11.106V31.832C11.106 32.096 11.178 32.318 11.322 32.498C11.466 32.678 11.694 32.798 12.006 32.858L13.32 33.092C13.632 33.152 13.854 33.26 13.986 33.416C14.118 33.572 14.184 33.8 14.184 34.1C14.184 34.364 14.088 34.58 13.896 34.748C13.716 34.916 13.422 35 13.014 35H2.844C2.436 35 2.136 34.916 1.944 34.748C1.764 34.58 1.674 34.358 1.674 34.082C1.674 33.602 1.926 33.272 2.43 33.092L3.348 32.858C3.648 32.762 3.87 32.636 4.014 32.48C4.158 32.312 4.23 32.096 4.23 31.832V12.986C4.23 12.722 4.158 12.506 4.014 12.338C3.87 12.17 3.648 12.038 3.348 11.942L2.43 11.708C1.926 11.528 1.674 11.198 1.674 10.718C1.674 10.43 1.764 10.208 1.944 10.052C2.136 9.884 2.43 9.8 2.826 9.8H12.24C14.94 9.8 17.244 10.202 19.152 11.006C21.072 11.798 22.536 12.902 23.544 14.318C24.552 15.722 25.056 17.336 25.056 19.16ZM28.8973 35.45C28.2253 35.45 27.6073 35.282 27.0433 34.946C26.4913 34.598 26.0533 34.136 25.7293 33.56C25.4173 32.984 25.2613 32.366 25.2613 31.706C25.2613 31.01 25.4173 30.386 25.7293 29.834C26.0533 29.27 26.4913 28.82 27.0433 28.484C27.6073 28.148 28.2253 27.98 28.8973 27.98C29.5933 27.98 30.2173 28.148 30.7693 28.484C31.3213 28.82 31.7593 29.27 32.0833 29.834C32.4073 30.386 32.5693 31.01 32.5693 31.706C32.5693 32.366 32.4073 32.984 32.0833 33.56C31.7593 34.136 31.3213 34.598 30.7693 34.946C30.2173 35.282 29.5933 35.45 28.8973 35.45ZM43.2447 24.992L53.1987 15.272C53.7747 14.72 54.1527 14.222 54.3327 13.778C54.5127 13.334 54.5247 12.95 54.3687 12.626C54.2247 12.302 53.9247 12.056 53.4687 11.888L52.7667 11.672C52.5027 11.564 52.3107 11.438 52.1907 11.294C52.0707 11.138 52.0107 10.94 52.0107 10.7C52.0107 10.424 52.1067 10.208 52.2987 10.052C52.4907 9.884 52.7847 9.8 53.1807 9.8H60.7587C61.1667 9.8 61.4667 9.884 61.6587 10.052C61.8507 10.208 61.9467 10.424 61.9467 10.7C61.9467 10.952 61.8687 11.144 61.7127 11.276C61.5687 11.408 61.2807 11.558 60.8487 11.726C60.6447 11.798 60.4347 11.894 60.2187 12.014C60.0027 12.134 59.7327 12.32 59.4087 12.572C59.0847 12.824 58.6587 13.184 58.1307 13.652C57.6147 14.12 56.9367 14.738 56.0967 15.506L44.1087 26.846L43.2447 24.992ZM47.1507 22.058L52.4067 17.612L60.7767 31.616C61.0527 32.084 61.3107 32.414 61.5507 32.606C61.8027 32.798 62.0847 32.93 62.3967 33.002C62.7087 33.134 62.9247 33.296 63.0447 33.488C63.1647 33.668 63.2247 33.872 63.2247 34.1C63.2247 34.376 63.1287 34.598 62.9367 34.766C62.7447 34.922 62.4507 35 62.0547 35H52.5507C52.1547 35 51.8607 34.916 51.6687 34.748C51.4767 34.58 51.3807 34.358 51.3807 34.082C51.3807 33.842 51.4347 33.644 51.5427 33.488C51.6627 33.32 51.8247 33.206 52.0287 33.146L52.7847 32.966C53.0127 32.894 53.1327 32.756 53.1447 32.552C53.1567 32.336 53.0307 32.012 52.7667 31.58L47.1507 22.058ZM45.2427 31.832C45.2427 32.096 45.3027 32.312 45.4227 32.48C45.5547 32.636 45.7527 32.762 46.0167 32.858L46.7907 33.092C47.0907 33.224 47.2947 33.368 47.4027 33.524C47.5107 33.668 47.5647 33.86 47.5647 34.1C47.5647 34.364 47.4687 34.58 47.2767 34.748C47.0967 34.916 46.8027 35 46.3947 35H36.9627C36.5667 35 36.2727 34.916 36.0807 34.748C35.9007 34.58 35.8107 34.364 35.8107 34.1C35.8107 33.608 36.0627 33.272 36.5667 33.092L37.4847 32.858C37.7727 32.762 37.9887 32.636 38.1327 32.48C38.2887 32.312 38.3667 32.096 38.3667 31.832V12.968C38.3667 12.704 38.2887 12.494 38.1327 12.338C37.9887 12.17 37.7727 12.038 37.4847 11.942L36.5667 11.708C36.0627 11.528 35.8107 11.192 35.8107 10.7C35.8107 10.424 35.9007 10.208 36.0807 10.052C36.2727 9.884 36.5667 9.8 36.9627 9.8H46.6467C47.0427 9.8 47.3367 9.884 47.5287 10.052C47.7207 10.208 47.8167 10.424 47.8167 10.7C47.8167 11.192 47.5587 11.528 47.0427 11.708L46.1427 11.942C45.8547 12.038 45.6327 12.17 45.4767 12.338C45.3207 12.494 45.2427 12.704 45.2427 12.968V31.832Z" fill="white"/>
</svg>
